<svg width="30" height="15" viewBox="0 0 30 15" fill="none" xmlns="http://www.w3.org/2000/svg">
<path d="M3.19412 14.4514L8.22775 13.6398C8.76783 13.5517 9.26445 13.2884 9.64005 12.8903C10.0161 12.4925 10.2507 11.982 10.3076 11.4376L10.6024 8.57155C13.4342 7.46523 16.5809 7.46665 19.4148 8.57633L19.7039 11.3322C19.761 11.8702 19.9915 12.3753 20.3602 12.7718C20.7289 13.1682 21.2158 13.4342 21.7482 13.5308L26.7941 14.4272C27.5424 14.5637 28.3108 14.3357 28.8632 13.8128C29.4161 13.293 29.6918 12.5428 29.6085 11.788L29.2015 8.14559C29.0628 6.81036 28.4058 5.58233 27.3719 4.72601C23.8841 1.86379 19.5131 0.298476 15.0035 0.296245C10.4944 0.294447 6.12573 1.85503 2.64174 4.71356C2.51652 4.81623 2.39738 4.92496 2.28343 5.0389C1.45856 5.86985 0.942922 6.95803 0.821799 8.12275L0.409997 11.8119C0.327208 12.5601 0.599879 13.3041 1.14638 13.8229C1.69245 14.3412 2.44989 14.5745 3.19282 14.4535L3.19412 14.4522V14.4514ZM2.01488 11.9897L2.42105 8.30272C2.51327 7.38811 2.96014 6.54654 3.66638 5.95828C6.86224 3.33669 10.8699 1.90465 15.0062 1.90709C19.1417 1.90954 23.151 3.34632 26.3496 5.97212C27.0526 6.56598 27.5 7.40765 27.5985 8.32237L28.0056 11.9648C28.0335 12.2067 27.9486 12.4477 27.7749 12.6188L27.7558 12.6378C27.573 12.8103 27.319 12.8855 27.0711 12.8412L22.0251 11.9439C21.8374 11.9096 21.6657 11.815 21.536 11.6749C21.4063 11.5348 21.326 11.3566 21.3064 11.1662L20.9703 7.93612C20.941 7.64523 20.7567 7.39326 20.4883 7.27649C18.7586 6.5199 16.8922 6.12909 15.0048 6.12798C13.1178 6.12643 11.2515 6.51546 9.52272 7.27001C9.25489 7.38603 9.07124 7.63821 9.0415 7.92907L8.69799 11.2715C8.67816 11.464 8.59547 11.6438 8.46247 11.7846C8.32991 11.925 8.1544 12.0181 7.96369 12.0492L2.93005 12.8607C2.68256 12.9018 2.42979 12.824 2.24805 12.651C2.07022 12.48 1.98251 12.2346 2.01228 11.9897L2.01488 11.9897Z" fill="#FF8133"/>
</svg>
