<svg width="39" height="39" viewBox="0 0 39 39" fill="none" xmlns="http://www.w3.org/2000/svg">
<g filter="url(#filter0_d_739_16997)">
<path d="M19.6835 1.70943L2.71289 18.68L19.6835 35.6506L36.654 18.68L19.6835 1.70943Z" stroke="#2B092E" stroke-miterlimit="10"/>
<path d="M19.0725 21.4027L16.0461 24.4291C15.7102 24.7649 15.7102 25.3095 16.0461 25.6453L19.0725 28.6717C19.4084 29.0076 19.9529 29.0076 20.2887 28.6717L23.3152 25.6453C23.651 25.3095 23.651 24.7649 23.3152 24.4291L20.2887 21.4027C19.9529 21.0668 19.4084 21.0668 19.0725 21.4027Z" fill="#2B092E"/>
<path d="M12.7009 15.0497L9.67452 18.0762C9.33867 18.412 9.33867 18.9565 9.67452 19.2924L12.7009 22.3188C13.0368 22.6546 13.5813 22.6546 13.9172 22.3188L16.9436 19.2924C17.2794 18.9565 17.2794 18.412 16.9436 18.0762L13.9172 15.0497C13.5813 14.7139 13.0368 14.7139 12.7009 15.0497Z" fill="#2B092E"/>
<path d="M23.3186 11.7009L20.2922 8.67449C19.9563 8.33864 19.4118 8.33864 19.076 8.67449L16.0496 11.7009C15.7137 12.0368 15.7137 12.5813 16.0496 12.9171L19.076 15.9435C19.4118 16.2794 19.9563 16.2794 20.2922 15.9435L23.3186 12.9171C23.6545 12.5813 23.6545 12.0368 23.3186 11.7009Z" fill="#2B092E"/>
<path d="M29.6716 18.0724L26.6452 15.0459C26.3094 14.7101 25.7648 14.7101 25.429 15.0459L22.4026 18.0724C22.0667 18.4082 22.0667 18.9527 22.4026 19.2886L25.429 22.315C25.7648 22.6509 26.3094 22.6509 26.6452 22.315L29.6716 19.2886C30.0075 18.9527 30.0075 18.4082 29.6716 18.0724Z" fill="#2B092E"/>
</g>
<defs>
<filter id="filter0_d_739_16997" x="0.505859" y="0.502319" width="38.3555" height="38.3553" filterUnits="userSpaceOnUse" color-interpolation-filters="sRGB">
<feFlood flood-opacity="0" result="BackgroundImageFix"/>
<feColorMatrix in="SourceAlpha" type="matrix" values="0 0 0 0 0 0 0 0 0 0 0 0 0 0 0 0 0 0 127 0" result="hardAlpha"/>
<feOffset dy="1"/>
<feGaussianBlur stdDeviation="0.75"/>
<feComposite in2="hardAlpha" operator="out"/>
<feColorMatrix type="matrix" values="0 0 0 0 1 0 0 0 0 1 0 0 0 0 1 0 0 0 0.26 0"/>
<feBlend mode="normal" in2="BackgroundImageFix" result="effect1_dropShadow_739_16997"/>
<feBlend mode="normal" in="SourceGraphic" in2="effect1_dropShadow_739_16997" result="shape"/>
</filter>
</defs>
</svg>
