<svg width="44" height="43" viewBox="0 0 44 43" fill="none" xmlns="http://www.w3.org/2000/svg">
<path d="M32.4916 17.2771H28.7676C29.2296 16.8011 29.8736 15.9751 30.3356 15.3311L29.1176 14.9391C28.7956 15.5271 28.0956 16.5351 27.6196 17.0531L28.2776 17.2771H22.9856L23.7836 16.9831C23.5176 16.4791 22.7756 15.5831 22.2296 15.0371L21.1656 15.4011C21.6836 15.9331 22.2856 16.7591 22.5656 17.2771H18.9256V18.2571H32.4916V17.2771ZM30.7696 27.6511C31.2176 27.4971 31.3856 27.1191 31.3856 26.5591V19.1391H30.2656V26.5591C30.2656 26.7551 30.1956 26.7971 29.9576 26.7971C29.7336 26.8111 28.8516 26.8111 28.1376 26.8111L28.2216 27.8331C29.4816 27.8331 30.3216 27.8191 30.7696 27.6511ZM20.9836 20.3991H24.1336V26.6291C24.1336 26.8111 24.0636 26.8811 23.8536 26.8811C23.6576 26.8951 22.8596 26.8951 22.2996 26.8811L22.3836 27.8191C23.4756 27.8191 24.3016 27.7911 24.6936 27.6511C25.0716 27.4971 25.2256 27.1471 25.2256 26.6571V19.4331H19.9196V27.8191H20.9836V20.3991ZM27.9836 19.5731H26.8776V25.3411H27.9836V19.5731ZM23.9936 22.3731C23.5036 22.0931 22.3976 21.5611 21.6836 21.2531L21.1796 21.8831C21.4736 22.0231 21.8236 22.2051 22.1736 22.3871L22.3136 22.4571C22.7756 22.6951 23.2096 22.9331 23.4756 23.0731L23.9936 22.3731ZM23.8676 24.7111C23.3776 24.4171 22.3136 23.8431 21.5856 23.4931L21.0676 24.1091C21.7816 24.4871 22.8456 25.1031 23.3216 25.3971L23.8676 24.7111Z" fill="#ADADAD"/>
<rect x="25.0415" y="3.53548" width="25" height="25" transform="rotate(45 25.0415 3.53548)" stroke="#ADADAD"/>
<path d="M6.65674 15.5564L0.999884 21.2133L6.65674 26.8701" stroke="#ADADAD"/>
</svg>
