<svg width="24" height="26" viewBox="0 0 24 26" fill="none" xmlns="http://www.w3.org/2000/svg">
<path d="M12 17.8978C14.3998 17.8978 16.3454 15.9609 16.3454 13.5732V5.32264C16.3454 2.93432 14.3991 0.998077 12 0.998077C9.60086 0.998077 7.65457 2.93502 7.65457 5.32264V13.5705C7.65457 15.9616 9.60086 17.895 12 17.8985V17.8978ZM8.97819 5.32194C8.97819 4.48875 9.31573 3.74109 9.86153 3.19722C10.4108 2.65056 11.1621 2.31742 11.9993 2.31742C12.8365 2.31742 13.5878 2.65335 14.1371 3.19722C14.6864 3.74388 15.0204 4.49153 15.0204 5.32194V13.5698C15.0204 14.403 14.6829 15.1506 14.1371 15.6973C13.5878 16.2439 12.8365 16.5764 11.9993 16.5764C11.1621 16.5764 10.4108 16.2405 9.86153 15.6973C9.31224 15.1506 8.97819 14.403 8.97819 13.5698V5.32194Z" fill="#FF8133"/>
<path d="M5.07617 15.4967C5.1195 16.0468 5.29421 16.6331 5.60241 17.2159C6.06225 18.0888 6.8205 18.9519 7.89952 19.6008C8.8192 20.1544 9.9681 20.5397 11.3413 20.6412V23.6847H5.35082V25.0019H18.6457V23.6847H12.6615V20.6544C13.5916 20.6113 14.823 20.4569 15.9845 19.8866C16.6994 19.534 17.3843 19.0172 17.9105 18.2758C18.4367 17.5345 18.7938 16.5795 18.8938 15.4007C18.9399 14.8638 18.963 14.0897 18.9797 13.2398C18.9965 12.3934 19 11.4774 19 10.6839C19 9.51127 18.9902 8.60852 18.9902 8.60852L17.6666 8.62173C17.6666 8.62173 17.6701 8.84568 17.6701 9.21429C17.6736 9.5829 17.6764 10.1003 17.6764 10.6832C17.6764 11.4705 17.6729 12.3795 17.6561 13.2161C17.6393 14.0493 17.6128 14.8137 17.5737 15.288C17.4912 16.2694 17.2096 16.9746 16.8287 17.5108C16.5408 17.9156 16.1934 18.2258 15.7993 18.4761C15.2102 18.8482 14.5218 19.0722 13.8565 19.1974C13.1877 19.3226 12.5489 19.349 12.066 19.349C10.0939 19.3455 8.71996 18.7098 7.80308 17.8996C7.34603 17.4948 7.0022 17.04 6.77088 16.5983C6.53886 16.1567 6.41656 15.729 6.3935 15.3896C6.36345 15.0209 6.34388 14.3554 6.3341 13.5945C6.32431 12.8336 6.32082 11.974 6.32082 11.1839C6.32082 10.4919 6.32431 9.85345 6.32711 9.38886C6.32991 8.92427 6.3334 8.63773 6.3334 8.63773L5.00978 8.62452C5.00978 8.62452 5 9.79085 5 11.1839C5 11.9747 5.00349 12.8406 5.01677 13.6112C5.02306 14.3915 5.04333 15.0634 5.07617 15.4953V15.4967Z" fill="#FF8133"/>
</svg>
