<svg width="24" height="27" viewBox="0 0 24 27" fill="none" xmlns="http://www.w3.org/2000/svg">
<path d="M11.8136 0.102688C11.8069 0.0980206 11.8002 0.0953541 11.7935 0.0906868C11.7583 0.0680161 11.7206 0.049345 11.6811 0.0346756C11.669 0.0300083 11.658 0.0260086 11.6459 0.0226746C11.5991 0.00933838 11.5505 1.90735e-06 11.4994 1.90735e-06C11.4484 1.90735e-06 11.4004 0.00933647 11.353 0.0233402C11.3409 0.0266743 11.3293 0.030674 11.3178 0.0353413C11.2783 0.0500107 11.2406 0.0680161 11.2054 0.0913544C11.1987 0.0960217 11.192 0.0986881 11.1853 0.103355C11.1452 0.132029 11.1094 0.166035 11.0772 0.204708C11.0699 0.214043 11.0626 0.224045 11.0553 0.234047C11.0286 0.270054 11.0055 0.308062 10.9867 0.349403C10.9842 0.355406 10.98 0.359406 10.9769 0.365406L0.0535701 26.1017C-0.0485005 26.3425 -0.00171815 26.6272 0.168399 26.8152C0.339732 27.0033 0.599769 27.0533 0.819099 26.9399L11.5001 21.4602L22.181 26.9399C22.4003 27.0526 22.6604 27.0026 22.8311 26.8145C22.9417 26.6932 23 26.5318 23 26.3671C23 26.2771 22.9824 26.1864 22.9459 26.1004L12.0213 0.364738C12.0189 0.358738 12.0147 0.354738 12.0116 0.348736C11.9928 0.307396 11.9697 0.268721 11.943 0.233379C11.9357 0.224045 11.929 0.213377 11.9211 0.204042C11.8889 0.166035 11.853 0.131361 11.8129 0.102688H11.8136ZM1.76507 25.0595L10.9247 3.48268V20.3606L1.76507 25.0595ZM12.0754 20.3606V3.48268L21.2344 25.0595L12.0754 20.3606Z" fill="#FF8133"/>
</svg>
