<svg width="280" height="33" viewBox="0 0 280 33" fill="none" xmlns="http://www.w3.org/2000/svg">
<g filter="url(#filter0_d_659_75652)">
<path d="M19.2727 21.66H10.4927V15.8H17.9727V14.54H10.4927V9H19.0927V7.66H8.97273V23H19.2727V21.66ZM24.6168 17.8H34.0968V16.44H24.6168V17.8ZM41.981 10.46L51.881 23H53.301V7.68H51.781V20.46L41.721 7.66H40.461V23H41.981V10.46ZM59.0607 17.4C59.0607 20.54 61.3807 23.22 64.6407 23.22C67.9007 23.22 70.2207 20.54 70.2207 17.4C70.2207 14.26 67.8807 11.56 64.6407 11.56C61.4207 11.56 59.0607 14.26 59.0607 17.4ZM64.6407 21.92C62.3807 21.92 60.5607 19.94 60.5607 17.42C60.5607 14.9 62.4207 12.84 64.6407 12.84C66.8807 12.84 68.7407 14.88 68.7407 17.38C68.7407 19.88 66.8807 21.92 64.6407 21.92ZM74.9323 17.4C74.9323 20.42 77.1923 23.22 80.3123 23.22C81.9523 23.22 83.6123 22.28 84.5123 20.82V21.92C84.5123 22.48 85.0323 23 85.6523 23.04C85.8523 23.06 86.0123 23.04 86.3123 23V21.84C85.9523 21.82 85.7923 21.64 85.7923 21.22V7.24H84.3323V14.1C83.4923 12.7 81.9523 11.56 80.0723 11.56C77.0923 11.56 74.9323 14.24 74.9323 17.4ZM84.3323 19.14C84.0923 20.66 82.1123 21.92 80.6323 21.92C78.2923 21.92 76.4523 19.84 76.4523 17.4C76.4523 15.1 78.0323 12.84 80.4523 12.84C81.9923 12.84 83.7723 14.1 84.3323 15.66V19.14ZM96.9898 23.22C99.1698 23.22 101.09 22.04 101.79 20.4L100.51 20.06C99.9698 21.28 98.5298 22.1 97.0498 22.1C94.8898 22.1 93.0898 20.32 92.8898 17.9H102.51C102.55 17.8 102.55 17.56 102.55 17.32C102.55 14.24 100.27 11.56 96.9698 11.56C93.7298 11.56 91.3498 14.18 91.3498 17.34C91.3498 20.54 93.7298 23.22 96.9898 23.22ZM92.8498 16.84C92.9898 14.42 94.7898 12.7 96.9898 12.7C99.1898 12.7 100.97 14.4 101.15 16.84H92.8498ZM107.839 17.8H117.319V16.44H107.839V17.8ZM122.804 15.44C122.804 18.9 124.984 23.1 129.144 23.22C133.064 23.18 135.484 19.18 135.484 15.44C135.484 12.1 133.344 7.66 129.144 7.66C125.244 7.66 122.804 11.74 122.804 15.44ZM129.144 21.86C126.024 21.86 124.424 18.44 124.344 15.44C124.344 12.74 125.884 9.02 129.144 9.02C132.204 9.02 133.964 12.44 133.964 15.44C133.964 18.16 132.384 21.86 129.144 21.86ZM141.509 11.74H139.869L144.129 17.4L139.869 23H141.529L144.829 18.62L144.989 18.32L145.169 18.62L148.449 23H150.109L145.829 17.4L150.109 11.74H148.449L145.169 16.16L144.989 16.48L144.829 16.16L141.509 11.74ZM160.228 12.76C163.168 12.76 165.508 15.06 165.508 17.94C165.508 20.86 163.128 23.22 160.068 23.22C156.848 23.22 154.548 20.8 154.548 16.8C154.548 10.56 156.848 7.56 160.208 7.56C162.248 7.56 163.948 8.64 164.788 10.4L163.848 11.28C163.228 9.8 161.828 8.86 160.208 8.86C157.668 8.86 156.008 11.32 155.968 15.54C156.608 13.86 158.288 12.76 160.228 12.76ZM156.088 17.94C156.088 20.1 157.928 21.92 160.108 21.92C162.288 21.92 164.108 20.12 164.108 17.94C164.108 15.76 162.268 13.98 160.088 13.98C157.908 13.98 156.088 15.76 156.088 17.94ZM178.395 9.02L171.315 23H172.955L180.735 7.66H170.115V9.02H178.395ZM191.825 23H193.285V18.9H195.185V17.56H193.285V7.66H192.285L184.285 17.58V18.9H191.825V23ZM185.865 17.56L191.945 9.96V17.56H185.865ZM204.809 23.22C207.749 23.22 210.129 21.16 210.129 18.14C210.129 15.26 207.929 13.26 205.149 13.26C203.849 13.26 202.729 13.72 201.969 14.54L203.049 9.02H209.349V7.66H201.949L200.209 16.28H201.609C202.349 15.18 203.629 14.56 204.969 14.56C207.029 14.56 208.649 16.04 208.649 18.16C208.649 20.36 206.969 21.88 204.849 21.88C203.169 21.88 201.669 20.94 200.889 19.52L199.889 20.26C200.769 22.04 202.629 23.22 204.809 23.22ZM215.061 23H225.401V21.66H216.661C216.701 20.02 217.061 18.44 220.761 16.78C222.681 15.86 225.381 14.92 225.381 11.88C225.381 9.52 223.781 7.46 220.601 7.46C217.321 7.46 215.521 9.7 215.181 10.1L216.161 11.06C216.821 10.2 218.241 8.86 220.461 8.86C222.701 8.86 223.761 10.28 223.761 11.9C223.761 14.54 220.941 15.12 218.721 16.32C216.461 17.54 214.981 19.42 215.061 23ZM235.721 23.2C238.581 23.2 241.081 21.6 241.081 19.02C241.081 17.1 239.741 15.5 237.681 15.12C239.621 14.64 240.681 13.48 240.681 11.72C240.681 9.3 238.521 7.46 235.581 7.46C233.521 7.46 231.521 8.42 230.721 9.98L231.741 10.96C232.281 9.74 233.701 8.78 235.601 8.78C237.541 8.78 239.161 9.96 239.161 11.76C239.161 13.6 237.441 14.54 234.641 14.54H233.901V15.8H234.641C237.641 15.8 239.561 16.96 239.561 18.86C239.561 20.6 237.901 21.82 235.721 21.82C233.281 21.82 231.621 20.3 231.501 18.8L230.601 19.64C230.921 21.74 233.001 23.2 235.721 23.2ZM246.218 15.44C246.218 18.9 248.398 23.1 252.558 23.22C256.478 23.18 258.898 19.18 258.898 15.44C258.898 12.1 256.758 7.66 252.558 7.66C248.658 7.66 246.218 11.74 246.218 15.44ZM252.558 21.86C249.438 21.86 247.838 18.44 247.758 15.44C247.758 12.74 249.298 9.02 252.558 9.02C255.618 9.02 257.378 12.44 257.378 15.44C257.378 18.16 255.798 21.86 252.558 21.86ZM271.523 21.66H268.783V7.46H267.283C267.243 7.56 265.383 9.58 263.863 9.58V10.96C265.043 10.96 266.803 9.78 267.283 9.12V21.66H264.363V23H271.523V21.66Z" fill="#FF8133"/>
</g>
<defs>
<filter id="filter0_d_659_75652" x="0.972778" y="0.23999" width="278.55" height="31.98" filterUnits="userSpaceOnUse" color-interpolation-filters="sRGB">
<feFlood flood-opacity="0" result="BackgroundImageFix"/>
<feColorMatrix in="SourceAlpha" type="matrix" values="0 0 0 0 0 0 0 0 0 0 0 0 0 0 0 0 0 0 127 0" result="hardAlpha"/>
<feOffset dy="1"/>
<feGaussianBlur stdDeviation="4"/>
<feComposite in2="hardAlpha" operator="out"/>
<feColorMatrix type="matrix" values="0 0 0 0 1 0 0 0 0 0.368627 0 0 0 0 0 0 0 0 0.3 0"/>
<feBlend mode="normal" in2="BackgroundImageFix" result="effect1_dropShadow_659_75652"/>
<feBlend mode="normal" in="SourceGraphic" in2="effect1_dropShadow_659_75652" result="shape"/>
</filter>
</defs>
</svg>
