<svg width="64" height="15" viewBox="0 0 64 15" fill="none" xmlns="http://www.w3.org/2000/svg">
<path d="M5.07379 2.38C4.53379 1.96 3.31879 1.12 2.50879 0.609999L1.69879 1.315C1.98379 1.51 2.32879 1.75 2.65879 1.99L2.79379 2.095C3.36379 2.5 3.90379 2.905 4.21879 3.175L5.07379 2.38ZM14.7338 11.8C15.1238 11.65 15.2888 11.29 15.2888 10.795V4.165H13.2338C12.9338 4.015 12.5438 3.835 12.1388 3.67L12.0038 3.61C13.1438 3.085 14.4488 2.23 15.2588 1.54L14.5088 0.984999L14.2838 1.045H6.28879V1.975H13.1438C12.5138 2.38 11.6588 2.83 10.9238 3.13C10.5938 2.995 10.2188 2.86 9.85879 2.725L9.70879 2.665C9.30379 2.53 8.91379 2.395 8.59879 2.29L7.81879 2.95C8.22379 3.085 8.70379 3.265 9.18379 3.445L9.33379 3.505C9.91879 3.73 10.5188 3.97 10.9838 4.165H6.27379V11.935H7.42879V9.445H10.2188V11.875H11.3138V9.445H14.1188V10.78C14.1188 10.96 14.0588 11.005 13.8488 11.005C13.6688 11.005 12.9188 11.035 12.3338 11.005L12.4088 11.965C13.5638 11.965 14.3288 11.935 14.7338 11.8ZM4.62379 5.35C4.24879 5.08 3.61879 4.66 2.98879 4.27L2.85379 4.18C2.52379 3.97 2.19379 3.775 1.92379 3.625L1.15879 4.345C2.01379 4.885 3.22879 5.725 3.79879 6.16L4.62379 5.35ZM11.3138 6.34V5.08H14.1188V6.34H11.3138ZM7.42879 6.34V5.08H10.2188V6.34H7.42879ZM7.42879 8.53V7.225H10.2188V8.53H7.42879ZM11.3138 8.53V7.225H14.1188V8.53H11.3138ZM3.73879 12.115C4.72879 13.21 6.46879 13.825 8.49379 13.9C9.27379 13.93 10.4438 13.93 11.6738 13.93H11.8388C11.8988 13.93 11.9438 13.93 12.0038 13.93H12.1688C12.2588 13.93 12.3488 13.93 12.4238 13.93H12.6038C13.8038 13.915 14.9738 13.9 15.7988 13.87L15.8588 12.745C14.7938 12.82 12.7988 12.85 11.0288 12.85H10.8638C9.93379 12.85 9.06379 12.835 8.47879 12.82C6.67879 12.745 4.99879 12.205 4.24879 11.17V7.345H1.06879V8.425H3.09379V11.26C2.83879 11.455 2.58379 11.68 2.31379 11.89L2.19379 11.98C1.74379 12.34 1.29379 12.685 0.903789 12.94L1.54879 14.05C1.78879 13.84 2.04379 13.63 2.29879 13.42L2.41879 13.315L2.52379 13.21C2.95879 12.835 3.36379 12.46 3.73879 12.115ZM30.4779 0.94H25.7829V1.9H30.4779V0.94ZM25.7079 8.92V13.48H30.5229V13.435C30.7779 13.615 31.1979 14.035 31.3479 14.215C33.4329 12.355 34.2879 9.58 34.4679 7.375H36.5829V6.265H34.5129C34.5279 6.04 34.5279 5.785 34.5279 5.545V2.29H37.1079V2.725C37.1079 8.5 37.1679 13.645 38.8479 14.11C39.6129 14.38 40.2129 13.675 40.4229 11.095L39.6129 10.84C39.5679 11.71 39.4329 12.94 39.3129 12.91C38.4879 12.73 38.3229 9.265 38.3229 4.945V4.75C38.3229 4.09 38.3229 3.4 38.3379 2.71V2.5C38.3379 2.425 38.3379 2.35 38.3379 2.275V2.065V1.84C38.3379 1.615 38.3379 1.39 38.3529 1.18H31.2579V2.29H33.3429V5.605C33.3429 5.83 33.3429 6.07 33.3429 6.265H31.0779V7.375H33.2979C33.1179 9.28 32.3079 11.71 30.5229 13.36V8.92H25.7079ZM31.0629 2.905H24.9879V3.88H31.0629V2.905ZM30.5079 4.93H25.7229V5.875H30.5079V4.93ZM30.5079 6.91H25.7229V7.87H30.5079V6.91ZM26.7729 12.535V9.895H29.4129V12.535H26.7729ZM57.0821 9.52H63.0371V3.085H57.0821V0.399999H55.8221V3.085H49.9121V9.55H55.8221V14.17H57.0821V9.52ZM51.1121 8.41V4.24H55.8221V8.41H51.1121ZM57.0821 8.395V4.24H61.7771V8.395H57.0821Z" fill="#CFCFCF"/>
</svg>
