<svg width="71" height="11" viewBox="0 0 71 11" fill="none" xmlns="http://www.w3.org/2000/svg">
<path d="M4.73987 10.112C3.97453 10.112 3.28853 9.916 2.68187 9.524C2.08453 9.132 1.60853 8.56267 1.25387 7.816C0.908532 7.06933 0.735866 6.164 0.735866 5.1C0.735866 4.036 0.908532 3.13067 1.25387 2.384C1.60853 1.63733 2.08453 1.068 2.68187 0.676C3.28853 0.284 3.97453 0.0879999 4.73987 0.0879999C5.49587 0.0879999 6.1772 0.284 6.78387 0.676C7.39053 1.068 7.86653 1.63733 8.21187 2.384C8.5572 3.13067 8.72987 4.036 8.72987 5.1C8.72987 6.164 8.5572 7.06933 8.21187 7.816C7.86653 8.56267 7.39053 9.132 6.78387 9.524C6.1772 9.916 5.49587 10.112 4.73987 10.112ZM4.73987 8.866C5.2532 8.866 5.7012 8.726 6.08387 8.446C6.47587 8.166 6.7792 7.746 6.99387 7.186C7.21787 6.626 7.32987 5.93067 7.32987 5.1C7.32987 4.26933 7.21787 3.574 6.99387 3.014C6.7792 2.454 6.47587 2.034 6.08387 1.754C5.7012 1.474 5.2532 1.334 4.73987 1.334C4.22653 1.334 3.77387 1.474 3.38187 1.754C2.98987 2.034 2.68187 2.454 2.45787 3.014C2.2432 3.574 2.13587 4.26933 2.13587 5.1C2.13587 5.93067 2.2432 6.626 2.45787 7.186C2.68187 7.746 2.98987 8.166 3.38187 8.446C3.77387 8.726 4.22653 8.866 4.73987 8.866ZM15.4778 10.112C14.7124 10.112 14.0264 9.916 13.4198 9.524C12.8224 9.132 12.3464 8.56267 11.9918 7.816C11.6464 7.06933 11.4738 6.164 11.4738 5.1C11.4738 4.036 11.6464 3.13067 11.9918 2.384C12.3464 1.63733 12.8224 1.068 13.4198 0.676C14.0264 0.284 14.7124 0.0879999 15.4778 0.0879999C16.2338 0.0879999 16.9151 0.284 17.5218 0.676C18.1284 1.068 18.6044 1.63733 18.9498 2.384C19.2951 3.13067 19.4678 4.036 19.4678 5.1C19.4678 6.164 19.2951 7.06933 18.9498 7.816C18.6044 8.56267 18.1284 9.132 17.5218 9.524C16.9151 9.916 16.2338 10.112 15.4778 10.112ZM15.4778 8.866C15.9911 8.866 16.4391 8.726 16.8218 8.446C17.2138 8.166 17.5171 7.746 17.7318 7.186C17.9558 6.626 18.0678 5.93067 18.0678 5.1C18.0678 4.26933 17.9558 3.574 17.7318 3.014C17.5171 2.454 17.2138 2.034 16.8218 1.754C16.4391 1.474 15.9911 1.334 15.4778 1.334C14.9644 1.334 14.5118 1.474 14.1198 1.754C13.7278 2.034 13.4198 2.454 13.1958 3.014C12.9811 3.574 12.8738 4.26933 12.8738 5.1C12.8738 5.93067 12.9811 6.626 13.1958 7.186C13.4198 7.746 13.7278 8.166 14.1198 8.446C14.5118 8.726 14.9644 8.866 15.4778 8.866ZM23.1356 4.428C22.8743 4.428 22.6503 4.33933 22.4636 4.162C22.277 3.97533 22.1836 3.742 22.1836 3.462C22.1836 3.182 22.277 2.95333 22.4636 2.776C22.6503 2.59867 22.8743 2.51 23.1356 2.51C23.3876 2.51 23.6023 2.59867 23.7796 2.776C23.9663 2.95333 24.0596 3.182 24.0596 3.462C24.0596 3.742 23.9663 3.97533 23.7796 4.162C23.6023 4.33933 23.3876 4.428 23.1356 4.428ZM23.1356 10.084C22.8743 10.084 22.6503 9.99533 22.4636 9.818C22.277 9.63133 22.1836 9.398 22.1836 9.118C22.1836 8.838 22.277 8.60933 22.4636 8.432C22.6503 8.25467 22.8743 8.166 23.1356 8.166C23.3876 8.166 23.6023 8.25467 23.7796 8.432C23.9663 8.60933 24.0596 8.838 24.0596 9.118C24.0596 9.398 23.9663 9.63133 23.7796 9.818C23.6023 9.99533 23.3876 10.084 23.1356 10.084ZM30.7875 10.112C30.0222 10.112 29.3362 9.916 28.7295 9.524C28.1322 9.132 27.6562 8.56267 27.3015 7.816C26.9562 7.06933 26.7835 6.164 26.7835 5.1C26.7835 4.036 26.9562 3.13067 27.3015 2.384C27.6562 1.63733 28.1322 1.068 28.7295 0.676C29.3362 0.284 30.0222 0.0879999 30.7875 0.0879999C31.5435 0.0879999 32.2249 0.284 32.8315 0.676C33.4382 1.068 33.9142 1.63733 34.2595 2.384C34.6049 3.13067 34.7775 4.036 34.7775 5.1C34.7775 6.164 34.6049 7.06933 34.2595 7.816C33.9142 8.56267 33.4382 9.132 32.8315 9.524C32.2249 9.916 31.5435 10.112 30.7875 10.112ZM30.7875 8.866C31.3009 8.866 31.7489 8.726 32.1315 8.446C32.5235 8.166 32.8269 7.746 33.0415 7.186C33.2655 6.626 33.3775 5.93067 33.3775 5.1C33.3775 4.26933 33.2655 3.574 33.0415 3.014C32.8269 2.454 32.5235 2.034 32.1315 1.754C31.7489 1.474 31.3009 1.334 30.7875 1.334C30.2742 1.334 29.8215 1.474 29.4295 1.754C29.0375 2.034 28.7295 2.454 28.5055 3.014C28.2909 3.574 28.1835 4.26933 28.1835 5.1C28.1835 5.93067 28.2909 6.626 28.5055 7.186C28.7295 7.746 29.0375 8.166 29.4295 8.446C29.8215 8.726 30.2742 8.866 30.7875 8.866ZM41.5254 10.112C40.7601 10.112 40.0741 9.916 39.4674 9.524C38.8701 9.132 38.3941 8.56267 38.0394 7.816C37.6941 7.06933 37.5214 6.164 37.5214 5.1C37.5214 4.036 37.6941 3.13067 38.0394 2.384C38.3941 1.63733 38.8701 1.068 39.4674 0.676C40.0741 0.284 40.7601 0.0879999 41.5254 0.0879999C42.2814 0.0879999 42.9627 0.284 43.5694 0.676C44.1761 1.068 44.6521 1.63733 44.9974 2.384C45.3427 3.13067 45.5154 4.036 45.5154 5.1C45.5154 6.164 45.3427 7.06933 44.9974 7.816C44.6521 8.56267 44.1761 9.132 43.5694 9.524C42.9627 9.916 42.2814 10.112 41.5254 10.112ZM41.5254 8.866C42.0387 8.866 42.4867 8.726 42.8694 8.446C43.2614 8.166 43.5647 7.746 43.7794 7.186C44.0034 6.626 44.1154 5.93067 44.1154 5.1C44.1154 4.26933 44.0034 3.574 43.7794 3.014C43.5647 2.454 43.2614 2.034 42.8694 1.754C42.4867 1.474 42.0387 1.334 41.5254 1.334C41.0121 1.334 40.5594 1.474 40.1674 1.754C39.7754 2.034 39.4674 2.454 39.2434 3.014C39.0287 3.574 38.9214 4.26933 38.9214 5.1C38.9214 5.93067 39.0287 6.626 39.2434 7.186C39.4674 7.746 39.7754 8.166 40.1674 8.446C40.5594 8.726 41.0121 8.866 41.5254 8.866ZM49.1833 4.428C48.922 4.428 48.698 4.33933 48.5113 4.162C48.3246 3.97533 48.2313 3.742 48.2313 3.462C48.2313 3.182 48.3246 2.95333 48.5113 2.776C48.698 2.59867 48.922 2.51 49.1833 2.51C49.4353 2.51 49.65 2.59867 49.8273 2.776C50.014 2.95333 50.1073 3.182 50.1073 3.462C50.1073 3.742 50.014 3.97533 49.8273 4.162C49.65 4.33933 49.4353 4.428 49.1833 4.428ZM49.1833 10.084C48.922 10.084 48.698 9.99533 48.5113 9.818C48.3246 9.63133 48.2313 9.398 48.2313 9.118C48.2313 8.838 48.3246 8.60933 48.5113 8.432C48.698 8.25467 48.922 8.166 49.1833 8.166C49.4353 8.166 49.65 8.25467 49.8273 8.432C50.014 8.60933 50.1073 8.838 50.1073 9.118C50.1073 9.398 50.014 9.63133 49.8273 9.818C49.65 9.99533 49.4353 10.084 49.1833 10.084ZM55.9952 10.112C55.3045 10.112 54.6325 10.0047 53.9792 9.79C53.3352 9.57533 52.8078 9.286 52.3972 8.922L53.0412 7.816C53.3678 8.124 53.7925 8.376 54.3152 8.572C54.8378 8.768 55.3932 8.866 55.9812 8.866C56.7278 8.866 57.3018 8.70733 57.7032 8.39C58.1045 8.07267 58.3052 7.648 58.3052 7.116C58.3052 6.752 58.2165 6.43467 58.0392 6.164C57.8618 5.89333 57.5538 5.688 57.1152 5.548C56.6858 5.39867 56.0932 5.324 55.3372 5.324H53.1112L53.6292 0.199999H59.1592V1.418H54.1472L54.8752 0.731999L54.4692 4.778L53.7412 4.106H55.6312C56.6112 4.106 57.3998 4.232 57.9972 4.484C58.5945 4.736 59.0285 5.086 59.2992 5.534C59.5698 5.97267 59.7052 6.48133 59.7052 7.06C59.7052 7.62 59.5698 8.13333 59.2992 8.6C59.0285 9.05733 58.6178 9.426 58.0672 9.706C57.5258 9.97667 56.8352 10.112 55.9952 10.112ZM66.2742 10.112C65.5089 10.112 64.8229 9.916 64.2162 9.524C63.6189 9.132 63.1429 8.56267 62.7882 7.816C62.4429 7.06933 62.2702 6.164 62.2702 5.1C62.2702 4.036 62.4429 3.13067 62.7882 2.384C63.1429 1.63733 63.6189 1.068 64.2162 0.676C64.8229 0.284 65.5089 0.0879999 66.2742 0.0879999C67.0302 0.0879999 67.7116 0.284 68.3182 0.676C68.9249 1.068 69.4009 1.63733 69.7462 2.384C70.0916 3.13067 70.2642 4.036 70.2642 5.1C70.2642 6.164 70.0916 7.06933 69.7462 7.816C69.4009 8.56267 68.9249 9.132 68.3182 9.524C67.7116 9.916 67.0302 10.112 66.2742 10.112ZM66.2742 8.866C66.7876 8.866 67.2356 8.726 67.6182 8.446C68.0102 8.166 68.3136 7.746 68.5282 7.186C68.7522 6.626 68.8642 5.93067 68.8642 5.1C68.8642 4.26933 68.7522 3.574 68.5282 3.014C68.3136 2.454 68.0102 2.034 67.6182 1.754C67.2356 1.474 66.7876 1.334 66.2742 1.334C65.7609 1.334 65.3082 1.474 64.9162 1.754C64.5242 2.034 64.2162 2.454 63.9922 3.014C63.7776 3.574 63.6702 4.26933 63.6702 5.1C63.6702 5.93067 63.7776 6.626 63.9922 7.186C64.2162 7.746 64.5242 8.166 64.9162 8.446C65.3082 8.726 65.7609 8.866 66.2742 8.866Z" fill="#CFCFCF"/>
</svg>
