<svg width="96" height="84" viewBox="0 0 96 84" fill="none" xmlns="http://www.w3.org/2000/svg">
<g filter="url(#filter0_d_278_33810)">
<path fill-rule="evenodd" clip-rule="evenodd" d="M46.8798 3.00504L48.0335 1L49.1873 3.00504L63.378 27.6667H61.0706L48.0335 5.01007L34.9965 27.6667H32.689L46.8798 3.00504ZM17.3445 54.3334L3.15084 79L2 81H4.30747H32.689L31.5382 79H5.45831L18.4982 56.3384L17.3445 54.3334ZM64.5288 79L63.378 81H91.7596H94.0671L92.9162 79L78.7225 54.3333L77.5688 56.3384L90.6087 79H64.5288Z" fill="#330020"/>
<path d="M66.7578 49.9301C64.0978 49.3601 61.1718 48.0301 59.0438 46.5481C60.9818 45.1041 62.7678 42.9001 63.6038 40.5821H66.7198V39.1381H54.6738C55.2058 38.3401 55.6238 37.3901 55.9658 36.4781L54.5218 36.1741C53.3818 39.1381 50.9878 41.9121 48.6698 43.6601L49.6198 44.7621C50.7218 43.9261 51.8998 42.8621 52.7738 41.9121C53.6478 43.4701 55.1298 45.2181 56.5358 46.4341C54.5218 47.6501 51.6338 48.7521 49.1638 49.3221L49.6958 50.7281C52.6978 49.9301 55.7378 48.7901 57.8278 47.3461C60.0698 49.2081 63.0338 50.5761 66.2258 51.4121L66.7578 49.9301ZM34.0018 40.3541C33.3178 41.8741 31.7218 43.6601 29.8218 44.8001L30.6578 45.9401C32.0258 45.0661 33.1278 44.0401 33.8878 43.0901H45.9338C45.6678 46.7761 45.4018 48.6381 45.0218 49.0561C44.7558 49.2081 44.4138 49.3601 44.1098 49.3601C43.7678 49.3601 42.9318 49.3601 41.9438 49.2461V44.6101H32.7858V49.5121H41.9438V49.3981C42.2098 49.7021 42.3238 50.1581 42.3618 50.5761C43.1978 50.6141 44.1478 50.6521 44.7558 50.6141C45.4018 50.5761 45.8578 50.3861 46.2758 49.9681C46.9218 49.3601 47.2638 47.3461 47.5678 42.5961C47.6058 42.3301 47.6058 41.8361 47.6058 41.8361H34.8378C35.0658 41.3801 35.4838 40.9241 35.6738 40.4681L34.0018 40.3541ZM53.8378 40.5821H61.8178C60.9058 42.5201 59.6138 44.3441 57.9418 45.5601C56.3458 44.3061 54.6738 42.3681 53.8378 40.5821ZM34.3438 48.2201V45.8641H40.3098V48.2201H34.3438ZM59.8798 51.5261H37.3078V52.7421H59.8798V51.5261ZM67.0238 54.6421H30.0118V55.8961H67.0238V54.6421ZM60.6018 57.7201H36.3578V58.9361H60.6018V57.7201ZM60.6018 60.8361H36.3578V62.0521H60.6018V60.8361ZM60.9058 63.8381H36.1678V69.7661H60.9058V63.8381ZM37.8778 68.5501V65.0921H59.0438V68.5501H37.8778ZM35.6738 40.8101H37.3078V39.3281H42.7418V40.8101H44.4138V39.3281H49.4298V38.0361H44.4138V36.2501H42.7418V38.0361H37.3078V36.2501H35.6738V38.0361H30.3158V39.3281H35.6738V40.4681V40.8101Z" fill="#330020"/>
</g>
<defs>
<filter id="filter0_d_278_33810" x="0.5" y="0.5" width="95.0671" height="83" filterUnits="userSpaceOnUse" color-interpolation-filters="sRGB">
<feFlood flood-opacity="0" result="BackgroundImageFix"/>
<feColorMatrix in="SourceAlpha" type="matrix" values="0 0 0 0 0 0 0 0 0 0 0 0 0 0 0 0 0 0 127 0" result="hardAlpha"/>
<feOffset dy="1"/>
<feGaussianBlur stdDeviation="0.75"/>
<feComposite in2="hardAlpha" operator="out"/>
<feColorMatrix type="matrix" values="0 0 0 0 1 0 0 0 0 1 0 0 0 0 1 0 0 0 0.26 0"/>
<feBlend mode="normal" in2="BackgroundImageFix" result="effect1_dropShadow_278_33810"/>
<feBlend mode="normal" in="SourceGraphic" in2="effect1_dropShadow_278_33810" result="shape"/>
</filter>
</defs>
</svg>
