<svg width="174" height="77" viewBox="0 0 174 77" fill="none" xmlns="http://www.w3.org/2000/svg">
<path d="M71.9562 7.69676H32.9136L30.5737 5.99042L31.309 4.98651L33.3218 6.45353H71.9562V7.69676Z" fill="white"/>
<path d="M51.3928 9.34103H50.1465V17.3816H51.3928V9.34103Z" fill="white"/>
<path d="M51.3928 20.6325H50.1465V28.6887H51.3928V20.6325Z" fill="white"/>
<path d="M48.6808 8.45895L29.6836 15.278L30.1055 16.4478L49.1027 9.62876L48.6808 8.45895Z" fill="white"/>
<path d="M52.8553 8.45505L52.4331 9.62479L71.4291 16.4471L71.8513 15.2774L52.8553 8.45505Z" fill="white"/>
<path d="M66.7558 18.3859H34.7827V19.6291H66.7558V18.3859Z" fill="white"/>
<path d="M72.6229 29.6895H28.9131V30.9327H72.6229V29.6895Z" fill="white"/>
<path d="M47.5104 24.0981H37.0293V25.3414H47.5104V24.0981Z" fill="white"/>
<path d="M63.7619 24.7196H62.5156V28.6886H63.7619V24.7196Z" fill="white"/>
<path d="M110.002 30.9331H104.715V29.6899H108.756V4.52064L109.616 3.72186L107.771 1.59593L108.712 0.781616L111.342 3.812L110.002 5.06145V30.9331Z" fill="white"/>
<path d="M106.458 12.1441L93.3735 29.8485L94.3767 30.5863L107.461 12.8819L106.458 12.1441Z" fill="white"/>
<path d="M120.116 20.5082H115.14L111.152 12.8002L112.261 12.2314L115.9 19.265H120.116V20.5082Z" fill="white"/>
<path d="M133.22 1.20087H131.974V11.0069H133.22V1.20087Z" fill="white"/>
<path d="M131.092 6.57877H127.107V7.822H131.092V6.57877Z" fill="white"/>
<path d="M137.912 6.57877H133.927V7.822H137.912V6.57877Z" fill="white"/>
<path d="M138.987 19.8931H126.229L122.789 17.1331L126.017 14.0436L126.88 14.9388L124.674 17.0523L126.668 18.6498H138.505L140.262 17.0523L138.286 14.9108L139.202 14.0716L142.025 17.13L138.987 19.8931Z" fill="white"/>
<path d="M138.987 13.4346H126.229L122.789 10.6777L126.017 7.58514L126.88 8.48338L124.674 10.5938L126.668 12.1913H138.505L140.262 10.5969L138.286 8.45541L139.202 7.61312L142.025 10.6746L138.987 13.4346Z" fill="white"/>
<path d="M145.786 9.80368H143.486V11.0469H145.786V9.80368Z" fill="white"/>
<path d="M145.786 22.9203H118.845V24.1636H145.786V22.9203Z" fill="white"/>
<path d="M128.831 20.7087L125.72 23.0514L126.471 24.0437L129.581 21.701L128.831 20.7087Z" fill="white"/>
<path d="M125.515 30.8431H118.845V29.5999H125.304L139.016 24.7824L139.43 25.9572L125.515 30.8431Z" fill="white"/>
<path d="M145.786 30.8431H139.115L125.204 25.9572L125.615 24.7824L139.327 29.5999H145.786V30.8431Z" fill="white"/>
<path d="M133.22 14.4916H131.974V17.5904H133.22V14.4916Z" fill="white"/>
<path d="M120.704 11.048H101.029L97.3057 8.90346L97.9288 7.82495L101.362 9.8048H120.704V11.048Z" fill="white"/>
<path d="M39.2826 75.2998H24.2027V74.0566H38.8277L43.9873 69.7115V66.8645H12.5781V52.617H13.8244V65.6213H45.2335V70.2896L39.2826 75.2998Z" fill="white"/>
<path d="M35.9021 62.3829H16.75V63.6261H35.9021V62.3829Z" fill="white"/>
<path d="M0.567055 76.4341L0 75.3276L11.1572 69.6491H35.1261V70.8924H11.4563L0.567055 76.4341Z" fill="white"/>
<path d="M38.1543 60.1177H13.665V58.8745H37.4283L38.4627 57.05L37.4283 55.2256H13.665V53.9823H38.1543L39.8959 57.05L38.1543 60.1177Z" fill="white"/>
<path d="M39.9458 51.3029H13.1167L10.1631 49.55L10.8018 48.4808L13.4595 50.0597H39.9458V51.3029Z" fill="white"/>
<path d="M93.1929 60.2759L65.7241 67.2453L66.0313 68.4502L93.5001 61.4808L93.1929 60.2759Z" fill="white"/>
<path d="M79.2359 75.1914H73.9517V73.9481H77.9896V45.5558H79.2359V75.1914Z" fill="white"/>
<path d="M106.476 60.2316H93.4341V61.4748H106.476V60.2316Z" fill="white"/>
<path d="M84.5171 55.101H74.2073L70.5713 53.0093L71.1944 51.9308L74.5407 53.8578H84.5171V55.101Z" fill="white"/>
<path d="M106.314 75.3006H92.811V51.7599H94.0573V74.0573H105.981L115.141 68.7829L115.764 69.8614L106.314 75.3006Z" fill="white"/>
<path d="M98.9864 52.366H87.5083V51.1228H98.6531L102.488 48.916L103.112 49.9914L98.9864 52.366Z" fill="white"/>
<path d="M154.292 53.1398H131.931V54.383H154.292V53.1398Z" fill="white"/>
<path d="M152.595 58.2857H133.626V59.5289H152.595V58.2857Z" fill="white"/>
<path d="M154.545 63.4294H131.682V64.6727H154.545V63.4294Z" fill="white"/>
<path d="M158.212 49.6487H156.966V76.8817H158.212V49.6487Z" fill="white"/>
<path d="M133.48 76.9998L132.763 75.9835L142.49 69.1675V46.6898H143.737V69.8108L133.48 76.9998Z" fill="white"/>
<path d="M170.902 57.9102H162.291V56.667H170.105L171.205 54.3017L170.105 51.9365H158.296V50.6932H170.902L172.579 54.3017L170.902 57.9102Z" fill="white"/>
<path d="M172.398 66.2091H158.296V64.9658H171.501L172.678 61.4382L171.501 57.9105H162.291V56.6673H172.398L173.993 61.4382L172.398 66.2091Z" fill="white"/>
</svg>
