<svg width="310" height="30" viewBox="0 0 310 30" fill="none" xmlns="http://www.w3.org/2000/svg">
<path d="M64.2192 0.400208V1.46746L70.7171 4.18113V8.05968H71.6997V4.18113L78.1813 1.47396V0.406715L71.2084 3.32213L64.2192 0.400208Z" fill="white"/>
<path d="M164.822 8.0434H177.993V7.06075H165.804V1.88068H177.993V0.894775H164.822V8.0434Z" fill="white"/>
<path d="M197.377 0.745117H195.985L197.319 2.07918H210.695V1.09653H197.726L197.377 0.745117Z" fill="white"/>
<path d="M204.194 2.95758H203.211V8.17018H204.194V2.95758Z" fill="white"/>
<path d="M263.889 1.7896H269.755V6.98918H263.889V7.97509H276.601V6.98918H270.738V1.7896H276.601V0.806946H263.889V1.7896Z" fill="white"/>
<path d="M308.431 7.08022H299.09C298.195 7.08022 297.44 6.59866 297.44 6.02599V2.77543C297.44 2.20601 298.195 1.72119 299.09 1.72119H308.431L309.492 2.3622L310 1.51946L308.705 0.735291H299.09C297.635 0.735291 296.454 1.64961 296.454 2.77218V6.02273C296.454 7.1453 297.635 8.05962 299.09 8.05962H308.705L310 7.27545L309.492 6.43271L308.431 7.07371V7.08022Z" fill="white"/>
<path d="M0 8.05969H0.227767H1.34382L7.50003 1.44144L13.653 8.05969H14.769H14.9968L7.50003 0L0 8.05969Z" fill="white"/>
<path d="M7.99193 4.0737H7.00928V8.05636H7.99193V4.0737Z" fill="white"/>
<path d="M34.5501 1.84819H44.5978L46.0165 3.23106V1.86121L45.0013 0.86554H33.9416L32.7507 3.24733L45.2226 6.42305L45.0631 7.06079H34.1043L32.4937 4.86122V6.52391L33.6097 8.04344H45.831L46.4167 5.71046L34.1791 2.59331L34.5501 1.84819Z" fill="white"/>
<path d="M98.0298 0.269928V8.05955H99.0124V1.77319L103.708 3.81007L102.507 4.33068V5.40769L104.947 4.3437L107.388 5.40769V4.33068L106.187 3.81007L110.886 1.77319V8.05955H111.868V0.269928L104.947 3.27319L98.0298 0.269928Z" fill="white"/>
<path d="M131.774 0.269928V8.05955H132.757V1.77319L137.449 3.81007L136.252 4.33068V5.40769L138.692 4.3437L141.132 5.40769V4.33068L139.932 3.81007L144.63 1.77319V8.05955H145.613V0.269928L138.692 3.27319L131.774 0.269928Z" fill="white"/>
<path d="M176.017 3.73212H166.961V4.71477H176.017V3.73212Z" fill="white"/>
<path d="M243.086 4.71795L244.241 4.04766V1.53898L243.086 0.862183H230.666V8.05961H231.649V1.84483H242.819L243.255 2.10188V3.4815L242.819 3.73204H241.342H240.414L240.32 3.6507L240.242 3.73204H239.904H235.508V4.71795H239.904H240.043L243.831 8.04659H245.305L241.53 4.71795H243.086Z" fill="white"/>
<path d="M64.2192 0.400208V1.46746L70.7171 4.18113V8.05968H71.6997V4.18113L78.1813 1.47396V0.406715L71.2084 3.32213L64.2192 0.400208Z" fill="white"/>
<path d="M164.822 8.0434H177.993V7.06075H165.804V1.88068H177.993V0.894775H164.822V8.0434Z" fill="white"/>
<path d="M197.377 0.745117H195.985L197.319 2.07918H210.695V1.09653H197.726L197.377 0.745117Z" fill="white"/>
<path d="M204.194 2.95758H203.211V8.17018H204.194V2.95758Z" fill="white"/>
<path d="M263.889 1.7896H269.755V6.98918H263.889V7.97509H276.601V6.98918H270.738V1.7896H276.601V0.806946H263.889V1.7896Z" fill="white"/>
<path d="M308.431 7.08022H299.09C298.195 7.08022 297.44 6.59866 297.44 6.02599V2.77543C297.44 2.20601 298.195 1.72119 299.09 1.72119H308.431L309.492 2.3622L310 1.51946L308.705 0.735291H299.09C297.635 0.735291 296.454 1.64961 296.454 2.77218V6.02273C296.454 7.1453 297.635 8.05962 299.09 8.05962H308.705L310 7.27545L309.492 6.43271L308.431 7.07371V7.08022Z" fill="white"/>
<path d="M0 8.05969H0.227767H1.34382L7.50003 1.44144L13.653 8.05969H14.769H14.9968L7.50003 0L0 8.05969Z" fill="white"/>
<path d="M7.99193 4.0737H7.00928V8.05636H7.99193V4.0737Z" fill="white"/>
<path d="M34.5501 1.84819H44.5978L46.0165 3.23106V1.86121L45.0013 0.86554H33.9416L32.7507 3.24733L45.2226 6.42305L45.0631 7.06079H34.1043L32.4937 4.86122V6.52391L33.6097 8.04344H45.831L46.4167 5.71046L34.1791 2.59331L34.5501 1.84819Z" fill="white"/>
<path d="M98.0298 0.269928V8.05955H99.0124V1.77319L103.708 3.81007L102.507 4.33068V5.40769L104.947 4.3437L107.388 5.40769V4.33068L106.187 3.81007L110.886 1.77319V8.05955H111.868V0.269928L104.947 3.27319L98.0298 0.269928Z" fill="white"/>
<path d="M131.774 0.269928V8.05955H132.757V1.77319L137.449 3.81007L136.252 4.33068V5.40769L138.692 4.3437L141.132 5.40769V4.33068L139.932 3.81007L144.63 1.77319V8.05955H145.613V0.269928L138.692 3.27319L131.774 0.269928Z" fill="white"/>
<path d="M176.017 3.73212H166.961V4.71477H176.017V3.73212Z" fill="white"/>
<path d="M243.086 4.71795L244.241 4.04766V1.53898L243.086 0.862183H230.666V8.05961H231.649V1.84483H242.819L243.255 2.10188V3.4815L242.819 3.73204H241.342H240.414L240.32 3.6507L240.242 3.73204H239.904H235.508V4.71795H239.904H240.043L243.831 8.04659H245.305L241.53 4.71795H243.086Z" fill="white"/>
<path d="M98.1386 21.8461H96.7524L98.08 23.1801H111.46V22.1942H98.49L98.1386 21.8461Z" fill="white"/>
<path d="M104.957 24.0553H103.975V29.2679H104.957V24.0553Z" fill="white"/>
<path d="M77.6068 27.1043C77.6068 27.7322 77.0992 28.2463 76.4777 28.2463H66.866C66.2412 28.2463 65.7369 27.7355 65.7369 27.1043V21.8884H64.751V27.1043C64.751 28.2756 65.7011 29.229 66.866 29.229H76.4777C77.6426 29.229 78.5927 28.2756 78.5927 27.1043V21.8884H77.61V27.1043H77.6068Z" fill="white"/>
<path d="M143.264 21.9567H135.049C133.529 21.9567 132.296 23.1931 132.296 24.7094V26.4144C132.296 27.9339 133.532 29.1671 135.049 29.1671H143.264C144.784 29.1671 146.017 27.9307 146.017 26.4144V24.7094C146.017 23.1899 144.781 21.9567 143.264 21.9567ZM143.264 28.1845H135.049C134.072 28.1845 133.279 27.3906 133.279 26.4144V24.7094C133.279 23.7333 134.072 22.9393 135.049 22.9393H143.264C144.241 22.9393 145.035 23.7333 145.035 24.7094V26.4144C145.035 27.3906 144.241 28.1845 143.264 28.1845Z" fill="white"/>
<path d="M237.523 21.1497L230.023 29.2094H231.367L237.523 22.5912L243.676 29.2094H245.02L237.523 21.1497Z" fill="white"/>
<path d="M238.014 25.2235H237.032V29.2061H238.014V25.2235Z" fill="white"/>
<path d="M178.407 22.012C178.033 22.012 177.822 22.012 177.682 22.025L166.121 22.012V29.2094H167.104V22.9946H178.274L178.71 23.2517V24.6313L178.274 24.8851H170.963V25.8677H178.538L179.693 25.1974V22.6888L178.541 22.012H178.407Z" fill="white"/>
<path d="M199.339 22.9426H205.203V28.1422H199.339V29.1248H212.052V28.1422H206.189V22.9426H212.052V21.9567H199.339V22.9426Z" fill="white"/>
</svg>
