<svg width="175" height="77" viewBox="0 0 175 77" fill="none" xmlns="http://www.w3.org/2000/svg">
    <path d="M72.2091 7.69682H33.1665L30.8267 5.99048L31.562 4.98657L33.5747 6.45359H72.2091V7.69682Z" fill="white" />
    <path d="M51.6457 9.34106H50.3994V17.3817H51.6457V9.34106Z" fill="white" />
    <path d="M51.6457 20.6326H50.3994V28.6887H51.6457V20.6326Z" fill="white" />
    <path d="M48.9337 8.45908L29.9365 15.2781L30.3585 16.4479L49.3557 9.62888L48.9337 8.45908Z" fill="white" />
    <path d="M53.1082 8.45527L52.686 9.625L71.682 16.4473L72.1042 15.2776L53.1082 8.45527Z" fill="white" />
    <path d="M67.0087 18.386H35.0356V19.6292H67.0087V18.386Z" fill="white" />
    <path d="M72.8759 29.6895H29.166V30.9327H72.8759V29.6895Z" fill="white" />
    <path d="M47.7634 24.0981H37.2822V25.3414H47.7634V24.0981Z" fill="white" />
    <path d="M64.0148 24.7197H62.7686V28.6887H64.0148V24.7197Z" fill="white" />
    <path
        d="M110.255 30.9333H104.968V29.69H109.009V4.52076L109.869 3.72198L108.024 1.59606L108.965 0.781738L111.595 3.81212L110.255 5.06157V30.9333Z"
        fill="white" />
    <path d="M106.711 12.1443L93.6265 29.8486L94.6296 30.5864L107.714 12.882L106.711 12.1443Z" fill="white" />
    <path d="M120.369 20.5083H115.393L111.405 12.8002L112.514 12.2314L116.153 19.265H120.369V20.5083Z" fill="white" />
    <path d="M133.473 1.20093H132.227V11.0069H133.473V1.20093Z" fill="white" />
    <path d="M131.345 6.57886H127.36V7.82209H131.345V6.57886Z" fill="white" />
    <path d="M138.165 6.57886H134.18V7.82209H138.165V6.57886Z" fill="white" />
    <path
        d="M139.24 19.8931H126.482L123.042 17.1331L126.27 14.0437L127.133 14.9388L124.927 17.0523L126.921 18.6499H138.757L140.515 17.0523L138.539 14.9109L139.455 14.0717L142.278 17.13L139.24 19.8931Z"
        fill="white" />
    <path
        d="M139.24 13.4346H126.482L123.042 10.6777L126.27 7.58521L127.133 8.48344L124.927 10.5938L126.921 12.1914H138.757L140.515 10.5969L138.539 8.45547L139.455 7.61318L142.278 10.6746L139.24 13.4346Z"
        fill="white" />
    <path d="M146.039 9.80371H143.739V11.0469H146.039V9.80371Z" fill="white" />
    <path d="M146.039 22.9204H119.098V24.1636H146.039V22.9204Z" fill="white" />
    <path d="M129.083 20.7088L125.973 23.0515L126.724 24.0438L129.834 21.7011L129.083 20.7088Z" fill="white" />
    <path d="M125.768 30.8432H119.098V29.6H125.556L139.269 24.7825L139.683 25.9573L125.768 30.8432Z" fill="white" />
    <path d="M146.039 30.8432H139.368L125.457 25.9573L125.868 24.7825L139.58 29.6H146.039V30.8432Z" fill="white" />
    <path d="M133.473 14.4917H132.227V17.5905H133.473V14.4917Z" fill="white" />
    <path d="M120.957 11.048H101.282L97.5586 8.90346L98.1817 7.82495L101.615 9.8048H120.957V11.048Z" fill="white" />
    <path
        d="M39.5355 75.2997H24.4556V74.0565H39.0806L44.2402 69.7114V66.8644H12.8311V52.6169H14.0773V65.6212H45.4865V70.2895L39.5355 75.2997Z"
        fill="white" />
    <path d="M36.155 62.3828H17.0029V63.626H36.155V62.3828Z" fill="white" />
    <path d="M0.819985 76.4339L0.25293 75.3274L11.4102 69.6489H35.3791V70.8922H11.7093L0.819985 76.4339Z"
        fill="white" />
    <path
        d="M38.4072 60.1175H13.918V58.8743H37.6812L38.7157 57.0499L37.6812 55.2254H13.918V53.9822H38.4072L40.1489 57.0499L38.4072 60.1175Z"
        fill="white" />
    <path d="M40.1988 51.3029H13.3697L10.416 49.5499L11.0547 48.4807L13.7124 50.0596H40.1988V51.3029Z" fill="white" />
    <path d="M93.4458 60.2758L65.9771 67.2451L66.2842 68.45L93.753 61.4806L93.4458 60.2758Z" fill="white" />
    <path d="M79.4888 75.1912H74.2046V73.948H78.2425V45.5557H79.4888V75.1912Z" fill="white" />
    <path d="M106.729 60.2314H93.687V61.4747H106.729V60.2314Z" fill="white" />
    <path d="M84.77 55.1009H74.4602L70.8242 53.0092L71.4474 51.9307L74.7936 53.8577H84.77V55.1009Z" fill="white" />
    <path d="M106.567 75.3004H93.064V51.7598H94.3102V74.0572H106.234L115.394 68.7827L116.017 69.8612L106.567 75.3004Z"
        fill="white" />
    <path d="M99.2394 52.366H87.7612V51.1228H98.906L102.741 48.916L103.365 49.9914L99.2394 52.366Z" fill="white" />
    <path d="M154.545 53.1399H132.184V54.3831H154.545V53.1399Z" fill="white" />
    <path d="M152.848 58.2859H133.879V59.5291H152.848V58.2859Z" fill="white" />
    <path d="M154.798 63.4297H131.935V64.6729H154.798V63.4297Z" fill="white" />
    <path d="M158.465 49.6489H157.219V76.882H158.465V49.6489Z" fill="white" />
    <path d="M133.733 77L133.016 75.9836L142.743 69.1676V46.6899H143.99V69.811L133.733 77Z" fill="white" />
    <path
        d="M171.155 57.9103H162.544V56.6671H170.358L171.458 54.3018L170.358 51.9366H158.549V50.6934H171.155L172.832 54.3018L171.155 57.9103Z"
        fill="white" />
    <path
        d="M172.651 66.2093H158.549V64.9661H171.754L172.931 61.4384L171.754 57.9107H162.544V56.6675H172.651L174.246 61.4384L172.651 66.2093Z"
        fill="white" />
</svg>