<svg width="24" height="24" viewBox="0 0 24 24" fill="none" xmlns="http://www.w3.org/2000/svg">
<path d="M23.0358 16.9924L19.0679 14.1264C18.6415 13.8196 18.1257 13.6612 17.6004 13.6765C17.0752 13.6912 16.5694 13.8785 16.1612 14.2094L14.0155 15.9548C11.3422 14.7836 9.20716 12.6465 8.03668 9.96953L9.71122 7.90258C10.0377 7.49862 10.2241 6.99925 10.2429 6.47987C10.2618 5.96048 10.1118 5.44934 9.81592 5.02241L6.99914 0.988633C6.58389 0.387983 5.90748 0.0211152 5.17756 0.00109354C4.44939 -0.0212836 3.75299 0.30083 3.29715 0.86968L1.1009 3.61854C0.28863 4.61903 -0.098978 5.89865 0.0215982 7.1818C0.446262 11.4924 2.35078 15.522 5.41047 18.5847C8.47017 21.6469 12.4951 23.553 16.8005 23.9776C16.9552 23.9929 17.1099 24 17.2646 24C18.3886 23.9959 19.4773 23.6072 20.3502 22.8988L23.134 20.674C23.6981 20.2224 24.018 19.5322 23.9992 18.8091C23.9804 18.0865 23.6245 17.4141 23.0381 16.9918H23.0364L23.0358 16.9924ZM22.1653 19.4639L19.3867 21.691C18.7033 22.2493 17.8286 22.5172 16.9499 22.4371C13.0009 22.0473 9.30832 20.2989 6.50213 17.4894C3.69653 14.6805 1.95023 10.9836 1.56144 7.02987C1.48733 6.14951 1.75496 5.27445 2.30902 4.58664L4.50527 1.83779C4.65055 1.65465 4.8717 1.54865 5.1058 1.55042H5.13168C5.37283 1.55748 5.59634 1.67879 5.73456 1.87724L8.55075 5.91161C8.65486 6.06236 8.7072 6.24314 8.70015 6.42628C8.69309 6.60942 8.62662 6.7849 8.51075 6.92741L6.54624 9.34827C6.36861 9.56556 6.32274 9.86176 6.42567 10.1232C7.08619 11.8109 8.08785 13.3432 9.36832 14.6252C10.6482 15.9071 12.1792 16.91 13.8649 17.5713C14.1255 17.6743 14.4213 17.6278 14.639 17.4506L17.1411 15.4148C17.2852 15.2976 17.4634 15.2317 17.6493 15.2264C17.8345 15.2211 18.0169 15.277 18.1674 15.3854L22.1353 18.2514C22.3311 18.3916 22.45 18.6159 22.4558 18.8568C22.4605 19.0935 22.3535 19.3196 22.167 19.4657L22.1653 19.4639Z" fill="#FF8133"/>
</svg>
